<svg xmlns="http://www.w3.org/2000/svg" viewBox="0 0 512 768" role="img" aria-label="DeutschFlow mascot original style">
  <defs>
    <linearGradient id="bg" x1="0" x2="1" y1="0" y2="1">
      <stop offset="0" stop-color="#edf5ff"/>
      <stop offset="1" stop-color="#d6e7ff"/>
    </linearGradient>
    <radialGradient id="skinBlue" cx="42%" cy="26%" r="72%">
      <stop offset="0" stop-color="#8ed2ff"/>
      <stop offset="0.62" stop-color="#2f9cff"/>
      <stop offset="1" stop-color="#1265d9"/>
    </radialGradient>
    <linearGradient id="hatWhite" x1="0" x2="0" y1="0" y2="1">
      <stop offset="0" stop-color="#ffffff"/>
      <stop offset="1" stop-color="#d9e2f1"/>
    </linearGradient>
    <linearGradient id="clothWhite" x1="0" x2="0" y1="0" y2="1">
      <stop offset="0" stop-color="#ffffff"/>
      <stop offset="1" stop-color="#d9e0ee"/>
    </linearGradient>
    <linearGradient id="bookBlack" x1="0" x2="1" y1="0" y2="1">
      <stop offset="0" stop-color="#21242b"/>
      <stop offset="1" stop-color="#05060a"/>
    </linearGradient>
    <filter id="soft" x="-25%" y="-25%" width="150%" height="170%">
      <feDropShadow dx="0" dy="16" stdDeviation="18" flood-color="#0a1c3e" flood-opacity="0.25"/>
    </filter>
    <filter id="tinyShadow" x="-20%" y="-20%" width="140%" height="140%">
      <feDropShadow dx="0" dy="3" stdDeviation="3" flood-color="#0a1c3e" flood-opacity="0.3"/>
    </filter>
  </defs>

  <rect width="512" height="768" fill="url(#bg)"/>
  <ellipse cx="256" cy="704" rx="132" ry="24" fill="#8ba3c4" opacity="0.25"/>

  <g filter="url(#soft)">
    <path d="M195 126c17-52 88-79 151-43 46 27 58 80 28 121l-40 53-176-2 37-129z" fill="url(#hatWhite)"/>
    <ellipse cx="258" cy="250" rx="120" ry="32" fill="#f3f7ff"/>
    <ellipse cx="342" cy="128" rx="50" ry="37" fill="url(#hatWhite)"/>

    <ellipse cx="157" cy="283" rx="44" ry="34" fill="url(#skinBlue)"/>
    <ellipse cx="355" cy="282" rx="44" ry="34" fill="url(#skinBlue)"/>
    <ellipse cx="256" cy="276" rx="122" ry="112" fill="url(#skinBlue)"/>
    <ellipse cx="254" cy="292" rx="94" ry="70" fill="#75c0ff" opacity="0.35"/>

    <ellipse cx="214" cy="274" rx="34" ry="37" fill="#ffffff"/>
    <ellipse cx="300" cy="274" rx="34" ry="37" fill="#ffffff"/>
    <circle cx="214" cy="281" r="17" fill="#081a3b"/>
    <circle cx="300" cy="281" r="17" fill="#081a3b"/>
    <circle cx="209" cy="274" r="5" fill="#ffffff"/>
    <circle cx="295" cy="274" r="5" fill="#ffffff"/>

    <ellipse cx="256" cy="317" rx="22" ry="18" fill="#167ee8"/>
    <ellipse cx="190" cy="316" rx="15" ry="10" fill="#f4a5c4" opacity="0.55"/>
    <ellipse cx="323" cy="316" rx="15" ry="10" fill="#f4a5c4" opacity="0.55"/>

    <path d="M194 336c19 35 105 35 124 0" fill="#6b1625"/>
    <path d="M204 337c12 19 88 19 100 0" fill="#ff6a74"/>

    <ellipse cx="256" cy="430" rx="82" ry="100" fill="url(#skinBlue)"/>
    <rect x="207" y="472" width="98" height="168" rx="48" fill="url(#clothWhite)"/>

    <path d="M167 404c-45 10-69 45-63 83 6 33 36 58 72 55l31-4-6-76-34-58z" fill="url(#skinBlue)"/>
    <circle cx="172" cy="517" r="33" fill="#2f9cff"/>

    <path d="M344 404c45 10 69 45 63 83-6 33-36 58-72 55l-31-4 6-76 34-58z" fill="url(#skinBlue)"/>
    <circle cx="341" cy="492" r="31" fill="#2f9cff"/>

    <rect x="224" y="618" width="24" height="58" rx="10" fill="url(#skinBlue)"/>
    <rect x="267" y="618" width="24" height="58" rx="10" fill="url(#skinBlue)"/>
    <ellipse cx="214" cy="680" rx="68" ry="40" fill="#f7fbff"/>
    <ellipse cx="298" cy="680" rx="68" ry="40" fill="#f7fbff"/>

    <g transform="translate(80 380) rotate(-2)" filter="url(#tinyShadow)">
      <rect x="0" y="0" width="128" height="174" rx="10" fill="url(#bookBlack)"/>
      <rect x="8" y="8" width="112" height="158" rx="8" fill="#0d1016"/>
      <rect x="12" y="16" width="104" height="48" fill="#171a1f"/>
      <rect x="12" y="64" width="104" height="44" fill="#e2172f"/>
      <rect x="12" y="108" width="104" height="58" fill="#ffd33f"/>
      <text x="20" y="48" font-size="33" font-weight="700" fill="#ffd33f" font-family="Arial, sans-serif">Deutsch</text>
      <text x="20" y="92" font-size="31" font-weight="700" fill="#ffffff" font-family="Arial, sans-serif">Grammatik</text>
    </g>

    <g transform="translate(340 256)">
      <rect x="0" y="0" width="8" height="244" rx="4" fill="#dce6f6"/>
      <circle cx="4" cy="0" r="10" fill="#eef4ff"/>
      <path d="M8 10h134c28 0 43 20 43 40s-15 40-43 40H8z" fill="#ef111f"/>
      <path d="M8 50h177v20H8z" fill="#ffffff"/>
      <path d="M8 90h142c28 0 43 20 43 40s-15 40-43 40H8z" fill="#ef111f"/>
    </g>
  </g>
</svg>
