<svg xmlns="http://www.w3.org/2000/svg" viewBox="0 0 360 420" role="img" aria-label="3D Deutsch mascot">
  <defs>
    <radialGradient id="bgGlow" cx="50%" cy="42%" r="60%">
      <stop offset="0" stop-color="#e3f3ff"/>
      <stop offset="1" stop-color="#f9fcff"/>
    </radialGradient>
    <radialGradient id="skin" cx="40%" cy="28%" r="70%">
      <stop offset="0" stop-color="#7cc6ff"/>
      <stop offset="1" stop-color="#1374d9"/>
    </radialGradient>
    <linearGradient id="hat" x1="0" x2="0" y1="0" y2="1">
      <stop offset="0" stop-color="#ffffff"/>
      <stop offset="1" stop-color="#d8e1ef"/>
    </linearGradient>
    <linearGradient id="pants" x1="0" x2="0" y1="0" y2="1">
      <stop offset="0" stop-color="#ffffff"/>
      <stop offset="1" stop-color="#dae1ee"/>
    </linearGradient>
    <filter id="softShadow" x="-20%" y="-20%" width="140%" height="140%">
      <feDropShadow dx="0" dy="8" stdDeviation="8" flood-color="#0b2450" flood-opacity="0.25"/>
    </filter>
  </defs>

  <ellipse cx="180" cy="392" rx="108" ry="16" fill="#9fb6cf" opacity="0.35"/>
  <circle cx="180" cy="186" r="158" fill="url(#bgGlow)"/>

  <g filter="url(#softShadow)">
    <rect x="144" y="208" width="72" height="120" rx="34" fill="url(#skin)"/>
    <ellipse cx="180" cy="204" rx="60" ry="70" fill="url(#skin)"/>

    <ellipse cx="130" cy="118" rx="24" ry="18" fill="url(#skin)"/>
    <ellipse cx="230" cy="118" rx="24" ry="18" fill="url(#skin)"/>

    <circle cx="180" cy="114" r="74" fill="url(#skin)"/>
    <ellipse cx="178" cy="128" rx="56" ry="48" fill="#5db3ff" opacity="0.28"/>

    <ellipse cx="157" cy="111" rx="20" ry="22" fill="#ffffff"/>
    <ellipse cx="203" cy="111" rx="20" ry="22" fill="#ffffff"/>
    <circle cx="157" cy="114" r="10" fill="#0f2244"/>
    <circle cx="203" cy="114" r="10" fill="#0f2244"/>
    <circle cx="153" cy="110" r="3" fill="#ffffff"/>
    <circle cx="199" cy="110" r="3" fill="#ffffff"/>

    <ellipse cx="180" cy="134" rx="12" ry="10" fill="#1f86e7"/>
    <path d="M146 146c10 16 58 16 68 0" fill="#861c28"/>
    <path d="M152 147c8 9 50 9 58 0" fill="#ef5b66"/>

    <ellipse cx="136" cy="131" rx="8" ry="6" fill="#ff93be" opacity="0.55"/>
    <ellipse cx="224" cy="131" rx="8" ry="6" fill="#ff93be" opacity="0.55"/>

    <path d="M140 41c8-20 44-30 80-10 24 12 34 40 18 60l-18 22h-98l18-48z" fill="url(#hat)"/>
    <ellipse cx="179" cy="112" rx="66" ry="20" fill="#f9fbff"/>
    <ellipse cx="228" cy="52" rx="28" ry="20" fill="url(#hat)"/>

    <path d="M117 226c-24 3-36 20-33 42 2 18 18 31 36 30h13v-42l-16-30z" fill="url(#skin)"/>
    <circle cx="120" cy="270" r="18" fill="#40a1f9"/>
    <path d="M246 220c24 3 36 20 33 42-2 18-18 31-36 30h-13v-42l16-30z" fill="url(#skin)"/>
    <circle cx="240" cy="260" r="18" fill="#40a1f9"/>

    <rect x="132" y="292" width="96" height="62" rx="22" fill="url(#pants)"/>
    <rect x="160" y="350" width="18" height="34" rx="8" fill="url(#skin)"/>
    <rect x="183" y="350" width="18" height="34" rx="8" fill="url(#skin)"/>
    <ellipse cx="160" cy="385" rx="30" ry="18" fill="#f7fbff"/>
    <ellipse cx="206" cy="385" rx="30" ry="18" fill="#f7fbff"/>

    <rect x="64" y="204" width="58" height="76" rx="5" fill="#26313d"/>
    <rect x="68" y="210" width="50" height="68" rx="4" fill="#0d1724"/>
    <rect x="70" y="212" width="46" height="20" fill="#1f1f1f"/>
    <rect x="70" y="232" width="46" height="20" fill="#e0132e"/>
    <rect x="70" y="252" width="46" height="24" fill="#ffd440"/>

    <rect x="260" y="142" width="4" height="120" rx="2" fill="#dfe7f4"/>
    <circle cx="262" cy="142" r="5" fill="#edf2fb"/>
    <path d="M264 148h64c13 0 20 10 20 21s-7 21-20 21h-64z" fill="#f30d1c"/>
    <path d="M264 169h84v10h-84z" fill="#ffffff"/>
  </g>
</svg>
